:SAMPLES-PER-SECOND 30
:FULLY-SPECIFIED
:DEGREES
794
root  -15.0848 31.3653 23.7725 -114.219 -11.7058 89.9273
Spine  4.19677 2.41698 -15.19
Spine1  4.2781 -2.43284 5.30239
Neck  3.97569e-016 0 -2.38542e-015
Head  12.8123 4.06279 15.0146
R_Clavicle  0.506003 -14.7835 3.37172
R_UpperArm  21.1952 2.30177 11.2418
R_Forearm  14.6599 6.54014 -5.49404
R_Hand  0.155122 9.17111 -10.8001
L_Clavicle  -0.473376 14.7297 5.09882
L_UpperArm  -30.404 11.487 42.7776
L_Forearm  -2.92509 36.0101 49.1023
L_Hand  0.15971 5.71432 1.80154
L_Thigh  -2.6654 -12.6813 -1.67599
L_Calf  4.36185 -0.594786 4.19393
L_Foot  4.91309 15.6455 3.3304
L_Toe0  4.19208 -0.356822 -0.823672
R_Thigh  -4.08967 12.5719 -25.9737
R_Calf  -1.95073 5.31109 16.7604
R_Foot  -6.93734 -14.2245 11.2771
R_Toe0  1.12557 -0.383146 -5.08403
795
root  -14.7893 31.3605 23.4259 -112.221 -12.0901 88.9109
Spine  4.58062 0.911275 -15.1827
Spine1  4.58237 -3.42629 5.34472
Neck  3.97569e-016 0 -2.38542e-015
Head  9.19961 6.20727 16.0781
R_Clavicle  0.504353 -15.2266 3.42321
R_UpperArm  22.2931 1.96123 11.3313
R_Forearm  14.3245 6.8554 -5.76031
R_Hand  0.0726044 9.32126 -11.4754
L_Clavicle  -0.470877 14.9534 5.22872
L_UpperArm  -32.2347 11.2018 42.1366
L_Forearm  -5.20379 34.7821 48.8575
L_Hand  0.160944 5.89706 1.77367
L_Thigh  -0.822546 -13.7344 -2.69407
L_Calf  5.03494 -0.564119 4.02183
L_Foot  4.89543 14.2681 4.31086
L_Toe0  5.04563 -0.343449 -1.85244
R_Thigh  -0.747602 11.5937 -24.985
R_Calf  -3.22774 4.49052 14.0813
R_Foot  -6.20481 -14.3681 8.25376
R_Toe0  0.33418 -0.0999183 0.141483
796
root  -14.5626 31.583 23.1664 -110.339 -11.7242 87.6751
Spine  5.11675 1.12406 -14.58
Spine1  4.94699 -6.59 3.87564
Neck  3.97569e-016 0 -2.38542e-015
Head  4.83664 7.77147 17.627
R_Clavicle  0.469394 -15.3458 2.88979
R_UpperArm  23.9398 0.26925 12.4831
R_Forearm  13.2067 6.51068 -5.46807
R_Hand  0.120135 9.24017 -11.0928
L_Clavicle  -0.479708 14.2497 4.96972
L_UpperArm  -33.6162 11.3619 40.4794
L_Forearm  -6.43211 34.1936 49.2614
L_Hand  0.168054 6.02248 1.81226
L_Thigh  0.085748 -14.2346 -2.95304
L_Calf  7.78938 -0.69458 5.02335
L_Foot  3.85155 12.6967 2.411
L_Toe0  6.76134 -0.601679 -0.653771
R_Thigh  4.76551 9.54378 -22.7126
R_Calf  -6.48385 3.65123 11.3975
R_Foot  -4.8472 -13.4668 4.06071
R_Toe0  -2.53946 0.969837 2.03481
797
root  -14.3425 31.9228 22.9509 -109.133 -10.8722 87.1791
Spine  5.73683 3.18135 -13.339
Spine1  5.47056 -11.0462 1.35525
Neck  3.97569e-016 0 -2.38542e-015
Head  1.03654 8.27436 19.2221
R_Clavicle  0.420502 -14.9193 2.11871
R_UpperArm  24.634 -1.73621 13.5832
R_Forearm  11.8598 5.21438 -4.37512
R_Hand  0.179466 8.98856 -10.5083
L_Clavicle  -0.491128 13.2005 4.77648
L_UpperArm  -34.1531 11.9589 38.8375
L_Forearm  -6.36114 33.844 48.9882
L_Hand  0.134035 6.05594 1.4792
L_Thigh  -0.759143 -13.2507 -3.54707
L_Calf  10.7268 -1.02478 7.47703
L_Foot  3.44039 12.8191 1.00438
L_Toe0  7.28259 -0.714571 -0.159157
R_Thigh  11.3118 7.07838 -20.4914
R_Calf  -12.004 3.06997 9.55841
R_Foot  -2.89049 -11.2696 -1.60318
R_Toe0  -7.38581 2.74797 2.72846
798
root  -14.115 32.2465 22.7524 -107.965 -10.1052 87.2762
Spine  6.11856 5.1418 -11.8723
Spine1  5.90417 -14.4888 -1.21966
Neck  3.97569e-016 0 -2.38542e-015
Head  -1.20248 7.71424 20.1705
R_Clavicle  0.3851 -13.9458 1.65785
R_UpperArm  22.773 -2.60672 13.634
R_Forearm  11.2363 2.43002 -2.04762
R_Hand  0.127562 8.64354 -10.6569
L_Clavicle  -0.491423 12.9912 4.6774
L_UpperArm  -33.9061 12.6546 38.1964
L_Forearm  -5.34765 33.2438 47.2293
L_Hand  0.0792028 6.18362 0.943283
L_Thigh  -1.73442 -11.7812 -4.68465
L_Calf  12.898 -1.4065 10.3155
L_Foot  3.47508 13.2193 0.79843
L_Toe0  6.57568 -0.572902 -0.766718
R_Thigh  17.252 4.60901 -19.2092
R_Calf  -18.9155 2.66009 8.27152
R_Foot  -1.02868 -8.22431 -7.09868
R_Toe0  -13.536 4.54166 1.37212
799
root  -13.891 32.4723 22.5723 -106.297 -9.61755 87.336
Spine  6.15197 5.65631 -10.8469
Spine1  6.05169 -15.8971 -2.98988
Neck  3.97569e-016 0 -2.38542e-015
Head  -2.33156 6.75796 20.1313
R_Clavicle  0.373642 -12.6001 1.59483
R_UpperArm  18.661 -2.15566 12.7821
R_Forearm  11.6586 -1.69405 1.38057
R_Hand  0.00787645 8.16479 -11.2397
L_Clavicle  -0.476039 13.7517 4.41269
L_UpperArm  -33.2298 13.3335 38.2961
L_Forearm  -3.92007 32.2391 44.6125
L_Hand  0.046001 6.45576 0.619831
L_Thigh  -1.33452 -11.1313 -5.69217
L_Calf  13.8183 -1.6777 12.3486
L_Foot  3.38366 13.0887 0.612156
L_Toe0  6.11874 -0.488104 -1.16189
R_Thigh  21.2063 2.50195 -18.6075
R_Calf  -25.301 2.27678 7.07229
R_Foot  0.274424 -5.68648 -11.6699
R_Toe0  -19.5439 6.12092 0.288802
